<svg width="403" height="325" viewBox="0 0 403 325" fill="none" xmlns="http://www.w3.org/2000/svg">
<g clip-path="url(#clip0_11_95)">
<path d="M390.738 286.757C401.003 277.099 406.296 262.631 400.781 250.392C392.753 262.708 379.536 272.407 364.213 277.228C358.245 279.106 351.382 280.655 348.136 285.392C346.116 288.339 345.969 292.03 346.879 295.367C347.789 298.705 349.663 301.774 351.518 304.802L351.529 305.658C366.055 301.965 380.473 296.415 390.738 286.757Z" fill="#F2F2F2"/>
<path d="M400.472 250.457C398.742 261.115 393.078 271.362 384.419 279.087C382.539 280.835 380.407 282.288 378.092 283.399C375.711 284.453 373.115 284.932 370.514 284.798C368.064 284.72 365.568 284.394 363.138 284.835C361.947 285.044 360.81 285.492 359.795 286.15C358.781 286.809 357.91 287.665 357.234 288.668C355.623 291.035 355.089 293.764 354.672 296.448C354.21 299.429 353.785 302.531 351.821 305.095C351.583 305.405 352.152 305.708 352.39 305.397C355.806 300.937 354.663 295.236 356.968 290.426C358.043 288.181 359.904 286.204 362.687 285.527C365.12 284.934 367.694 285.268 370.174 285.366C372.715 285.527 375.262 285.142 377.643 284.237C380.013 283.234 382.206 281.855 384.137 280.153C388.364 276.542 391.976 272.27 394.831 267.501C398 262.277 400.141 256.496 401.139 250.469C401.199 250.101 400.532 250.091 400.472 250.457Z" fill="white"/>
<path d="M387.386 276.705C389.149 277.798 391.209 278.314 393.279 278.181C395.348 278.049 397.326 277.276 398.935 275.968C399.24 275.706 398.785 275.282 398.479 275.545C396.983 276.765 395.142 277.485 393.214 277.605C391.287 277.724 389.371 277.237 387.735 276.212C387.389 275.99 387.043 276.485 387.386 276.705Z" fill="white"/>
<path d="M371.75 284.98C371.407 283.118 371.463 281.205 371.913 279.366C372.363 277.527 373.198 275.805 374.362 274.311C374.599 274 374.03 273.698 373.794 274.009C372.585 275.565 371.721 277.359 371.257 279.273C370.792 281.188 370.74 283.179 371.101 285.115C371.173 285.483 371.821 285.346 371.75 284.98Z" fill="white"/>
<path d="M397.155 262.122C396.427 261.862 395.778 261.421 395.268 260.841C394.759 260.26 394.406 259.559 394.244 258.804C394.178 258.435 393.53 258.573 393.595 258.939C393.778 259.772 394.168 260.546 394.73 261.188C395.291 261.831 396.005 262.322 396.806 262.615C396.882 262.654 396.969 262.665 397.052 262.648C397.135 262.63 397.21 262.585 397.265 262.52C397.287 262.488 397.302 262.451 397.309 262.412C397.315 262.373 397.313 262.333 397.303 262.295C397.292 262.257 397.274 262.222 397.248 262.192C397.223 262.162 397.191 262.138 397.155 262.122Z" fill="white"/>
<path d="M352.104 236.477C352.138 236.708 352.171 236.939 352.201 237.174C352.633 240.282 352.774 243.423 352.621 246.557C352.614 246.799 352.602 247.044 352.587 247.286C352.103 254.91 350.024 262.348 346.484 269.119C345.043 271.883 343.38 274.526 341.51 277.02C338.905 280.5 335.762 284.094 334.665 288.004C334.546 288.409 334.455 288.822 334.394 289.24L350.325 305.603C350.383 305.625 350.436 305.649 350.494 305.671L351.096 306.35C351.204 306.225 351.312 306.095 351.42 305.971C351.483 305.899 351.542 305.823 351.605 305.752C351.646 305.703 351.686 305.654 351.726 305.611C351.74 305.595 351.753 305.579 351.763 305.566C351.803 305.523 351.835 305.48 351.87 305.441C352.48 304.712 353.085 303.978 353.685 303.239C353.689 303.236 353.689 303.236 353.69 303.229C358.246 297.587 362.299 291.565 365.171 285.201C365.257 285.009 365.348 284.815 365.427 284.616C366.695 281.763 367.7 278.799 368.427 275.763C368.814 274.114 369.106 272.445 369.301 270.762C369.792 266.419 369.494 262.024 368.42 257.787C366.275 249.299 361.028 241.5 352.741 236.828C352.529 236.709 352.32 236.593 352.104 236.477Z" fill="#F2F2F2"/>
<path d="M351.901 236.689C357.909 246.104 360.493 257.246 358.935 267.941C358.653 270.295 357.955 272.58 356.874 274.69C355.669 276.811 353.914 278.566 351.793 279.77C349.782 280.988 347.563 282.033 345.929 283.654C345.125 284.444 344.52 285.413 344.163 286.481C343.805 287.55 343.706 288.687 343.873 289.801C344.228 292.534 345.694 294.992 347.223 297.353C348.92 299.974 350.731 302.674 350.941 305.747C350.967 306.119 351.631 306.063 351.605 305.691C351.24 300.344 346.374 296.39 344.879 291.344C344.182 288.99 344.297 286.439 346.048 284.443C347.58 282.698 349.867 281.619 351.915 280.401C354.008 279.245 355.787 277.595 357.096 275.595C358.296 273.546 359.094 271.287 359.449 268.939C360.319 263.737 360.239 258.42 359.215 253.247C358.05 247.236 355.751 241.502 352.442 236.35C352.234 236.025 351.694 236.366 351.901 236.689Z" fill="white"/>
<path d="M359.653 264.488C364.016 264.448 367.739 261.606 368.363 257.862C368.424 257.493 367.767 257.392 367.705 257.762C367.121 261.269 363.667 263.874 359.589 263.911C359.16 263.915 359.226 264.491 359.653 264.488Z" fill="white"/>
<path d="M352.906 279.268C351.397 278.067 350.148 276.571 349.235 274.872C348.321 273.173 347.763 271.306 347.594 269.385C347.567 269.012 346.903 269.068 346.93 269.44C347.111 271.439 347.696 273.381 348.65 275.147C349.605 276.914 350.908 278.468 352.482 279.715C352.794 279.972 353.217 279.524 352.906 279.268Z" fill="white"/>
<path d="M357.34 247.737C356.534 247.9 355.701 247.884 354.902 247.689C354.103 247.494 353.356 247.126 352.716 246.609C352.407 246.349 351.985 246.798 352.291 247.056C353.001 247.624 353.826 248.03 354.709 248.247C355.592 248.464 356.512 248.487 357.404 248.313C357.581 248.279 357.721 248.167 357.704 247.997C357.688 247.915 357.642 247.843 357.574 247.795C357.506 247.746 357.423 247.725 357.34 247.737Z" fill="white"/>
<path d="M327.951 112.504C335.494 112.504 341.609 106.393 341.609 98.8538C341.609 91.3149 335.494 85.2034 327.951 85.2034C320.408 85.2034 314.293 91.3149 314.293 98.8538C314.293 106.393 320.408 112.504 327.951 112.504Z" fill="#A0616A"/>
<path d="M387.799 161.918C385.88 157.464 383.244 153.354 379.996 149.751C382.746 154.132 384.318 159.148 384.559 164.314C383.564 164.936 382.522 165.481 381.443 165.944C378.201 167.303 374.744 168.079 371.232 168.236C369.339 161.933 366.071 156.127 361.665 151.237C364.841 156.299 366.438 162.19 366.253 168.162C362.335 167.823 358.475 166.997 354.763 165.701C349.189 163.785 343.779 160.923 339.925 156.471C335.753 151.653 333.697 145.295 333.033 138.957C332.369 132.623 332.993 126.231 333.623 119.893C333.92 116.872 331.403 113.396 331.7 110.375H331.898C333.221 108.563 334.569 106.706 335.218 104.557C335.862 102.413 335.693 99.8826 334.212 98.1941C333.382 97.3118 332.335 96.6629 331.175 96.3124C331.066 96.1737 330.947 96.0401 330.823 95.9064C328.58 93.5249 325.94 91.5511 323.02 90.0732C325.126 91.6627 326.533 93.4602 327.187 95.3171C325.363 94.916 323.54 94.5166 321.717 94.1188C321.108 93.4728 320.466 92.858 319.795 92.2767C319.017 91.6472 318.194 91.0762 317.332 90.5684C318.272 91.3949 319.001 92.4339 319.458 93.5989C317.114 93.0096 314.771 92.1232 313.552 90.1079C311.531 86.7754 313.934 82.2792 317.288 80.2886C319.728 78.9111 322.539 78.3348 325.324 78.6414C328.11 78.948 330.729 80.1218 332.81 81.9969C337.66 78.4268 344.567 78.4862 349.962 81.1552C353.524 82.996 356.593 85.6636 358.91 88.9343C357.566 88.7619 356.213 88.6676 354.857 88.6521C356.765 88.9311 358.582 89.6499 360.164 90.7516C360.863 91.8376 361.505 92.9599 362.086 94.1138C362.467 94.8714 362.827 95.639 363.166 96.4164C365.242 101.14 366.594 106.171 367.996 111.143C369.631 116.936 371.385 122.769 374.447 127.954C379.142 135.837 386.547 141.743 395.281 144.567C396.009 151.118 392.808 157.526 387.799 161.918Z" fill="#2F2E41"/>
<path d="M356.105 309.817L351.147 312.124L339.886 294.109L347.203 290.705L356.105 309.817Z" fill="#A0616A"/>
<path d="M362.721 317.185L359.165 318.839L356.968 315.779L356.905 319.89L347.476 324.278C347.024 324.488 346.516 324.548 346.027 324.45C345.539 324.352 345.094 324.1 344.759 323.731C344.423 323.362 344.215 322.896 344.163 322.401C344.112 321.905 344.22 321.406 344.472 320.976L349.582 312.275L348.002 308.883L356.142 305.67L362.721 317.185Z" fill="#2F2E41"/>
<path d="M306.335 315.026H300.867L298.264 293.945H306.335V315.026Z" fill="#A0616A"/>
<path d="M309.222 324.496H305.3L304.6 320.795L302.807 324.496H292.406C291.907 324.496 291.422 324.337 291.02 324.041C290.618 323.746 290.322 323.33 290.173 322.854C290.025 322.379 290.033 321.868 290.195 321.397C290.358 320.926 290.667 320.519 291.077 320.236L299.383 314.503V310.762L308.12 311.283L309.222 324.496Z" fill="#2F2E41"/>
<path d="M331.594 155.288L327.063 169.105L325.566 180.305L301.498 172.879L303.724 147.886L308.73 142.937L331.594 155.288Z" fill="#A0616A"/>
<path d="M101.181 26.0825C102.524 24.066 101.729 21.1793 99.4067 19.635C97.0842 18.0907 94.1133 18.4735 92.7709 20.4901C91.4285 22.5067 92.223 25.3933 94.5455 26.9376C96.868 28.4819 99.839 28.0991 101.181 26.0825Z" fill="#FD6584"/>
<path d="M149.998 194.103C151.341 192.086 150.546 189.199 148.224 187.655C145.901 186.111 142.93 186.494 141.588 188.51C140.246 190.527 141.04 193.413 143.363 194.958C145.685 196.502 148.656 196.119 149.998 194.103Z" fill="#E6E6E6"/>
<path d="M13.2556 50.0074C14.598 47.9908 13.8034 45.1042 11.481 43.5599C9.15847 42.0155 6.18751 42.3984 4.84513 44.415C3.50276 46.4315 4.2973 49.3182 6.61979 50.8625C8.94228 52.4068 11.9132 52.024 13.2556 50.0074Z" fill="#E6E6E6"/>
<path d="M185.605 169.548H20.5005C15.0653 169.542 9.85452 167.382 6.01127 163.54C2.16802 159.699 0.00617232 154.491 0 149.059V78.1287C0.00613699 72.6965 2.16797 67.4885 6.01123 63.6474C9.85448 59.8062 15.0653 57.6456 20.5005 57.6394C73.1841 43.0517 128.439 44.4184 185.605 57.6394C191.04 57.6456 196.251 59.8062 200.094 63.6474C203.937 67.4885 206.099 72.6965 206.105 78.1287V149.059C206.099 154.491 203.937 159.699 200.094 163.54C196.25 167.382 191.04 169.542 185.605 169.548Z" fill="#F2F2F2"/>
<path d="M17.5883 151.475C17.5232 151.475 17.4588 151.462 17.3987 151.437C17.3385 151.412 17.2839 151.376 17.2379 151.33C17.1919 151.284 17.1554 151.229 17.1305 151.169C17.1056 151.109 17.0928 151.045 17.0928 150.979V76.2084C17.0928 76.0771 17.145 75.9511 17.2379 75.8583C17.3309 75.7654 17.4569 75.7132 17.5883 75.7132C17.7197 75.7132 17.8457 75.7654 17.9386 75.8583C18.0315 75.9511 18.0837 76.0771 18.0837 76.2084V150.979C18.0837 151.045 18.0709 151.109 18.046 151.169C18.0212 151.229 17.9847 151.284 17.9386 151.33C17.8926 151.376 17.838 151.412 17.7779 151.437C17.7178 151.462 17.6533 151.475 17.5883 151.475Z" fill="white"/>
<path d="M189.508 151.475C189.573 151.475 189.637 151.462 189.697 151.437C189.757 151.412 189.812 151.376 189.858 151.33C189.904 151.284 189.941 151.229 189.965 151.169C189.99 151.109 190.003 151.045 190.003 150.979V76.2084C190.003 76.0771 189.951 75.9511 189.858 75.8583C189.765 75.7654 189.639 75.7132 189.508 75.7132C189.376 75.7132 189.25 75.7654 189.157 75.8583C189.064 75.9511 189.012 76.0771 189.012 76.2084V150.979C189.012 151.045 189.025 151.109 189.05 151.169C189.075 151.229 189.111 151.284 189.157 151.33C189.203 151.376 189.258 151.412 189.318 151.437C189.378 151.462 189.443 151.475 189.508 151.475Z" fill="white"/>
<path d="M156.808 92.0539H156.807C156.675 92.0535 156.549 92.0009 156.457 91.9077C156.364 91.8145 156.312 91.6884 156.313 91.5571L156.561 15.7957C156.561 15.6646 156.613 15.5391 156.706 15.4466C156.799 15.3542 156.925 15.3022 157.056 15.3022H157.058C157.189 15.3026 157.315 15.3552 157.407 15.4484C157.5 15.5416 157.552 15.6677 157.551 15.799L157.304 91.5605C157.303 91.6915 157.251 91.817 157.158 91.9095C157.065 92.0019 156.939 92.0539 156.808 92.0539Z" fill="#3F3D56"/>
<path d="M93.3913 200.497H93.3896C93.2583 200.496 93.1325 200.444 93.0399 200.351C92.9473 200.257 92.8955 200.131 92.8959 200L93.1436 126.219C93.144 126.088 93.1964 125.963 93.2893 125.87C93.3822 125.778 93.5079 125.726 93.639 125.726H93.6407C93.7721 125.726 93.898 125.779 93.9906 125.872C94.0832 125.965 94.1349 126.091 94.1345 126.223L93.8868 200.003C93.8864 200.134 93.834 200.26 93.7411 200.352C93.6483 200.445 93.5225 200.497 93.3913 200.497Z" fill="#3F3D56"/>
<path d="M46.3241 105.919H46.3224C46.191 105.918 46.0652 105.866 45.9726 105.773C45.88 105.679 45.8282 105.553 45.8286 105.422L46.0764 30.6508C46.0769 30.5198 46.1293 30.3943 46.2221 30.3018C46.315 30.2093 46.4407 30.1574 46.5718 30.1574H46.5735C46.7049 30.1578 46.8307 30.2104 46.9233 30.3036C47.0159 30.3968 47.0677 30.5229 47.0673 30.6542L46.8195 105.425C46.8191 105.556 46.7667 105.682 46.6738 105.774C46.5809 105.867 46.4552 105.919 46.3241 105.919Z" fill="#3F3D56"/>
<path d="M25.8667 125.824C26.8209 120.676 32.6775 118.302 37.4231 118.705C44.2048 119.281 49.8648 123.744 56.1766 125.848C59.2267 126.864 62.5083 127.422 65.7047 126.837C68.2243 126.319 70.5607 125.14 72.4745 123.421C76.1443 120.287 78.6254 116.011 82.2981 112.88C84.2622 111.112 86.7464 110.028 89.3786 109.79C92.6192 109.575 95.7927 110.672 98.6331 112.143C104.276 115.066 108.895 119.716 114.906 121.972C117.665 123.035 120.659 123.344 123.577 122.867C126.491 122.287 129.261 121.138 131.729 119.486C136.904 116.219 141.169 111.685 146.61 108.819C149.285 107.41 152.258 106.332 155.314 106.311C158.268 106.315 161.108 107.451 163.248 109.486C167.369 113.229 170.618 119.139 176.912 119.243C178.224 119.267 179.516 118.913 180.632 118.223C181.444 117.721 180.699 116.435 179.882 116.94C177.317 118.525 174.227 117.525 171.889 115.987C169.398 114.349 167.631 111.846 165.598 109.714C163.579 107.595 161.224 105.811 158.319 105.15C155.418 104.577 152.413 104.827 149.647 105.874C143.702 107.944 139.201 112.206 134.267 115.913C129.404 119.567 123.726 122.729 117.452 121.207C111.205 119.692 106.466 114.963 101.063 111.79C95.8396 108.722 89.4371 106.763 83.8129 109.991C79.563 112.43 76.876 116.738 73.612 120.247C72.0014 121.979 70.2053 123.588 68.0296 124.572C65.0066 125.938 61.5901 125.779 58.4413 124.969C51.8727 123.279 46.3326 118.859 39.6439 117.536C34.6793 116.555 28.803 117.792 25.7728 122.178C25.1028 123.156 24.6464 124.264 24.4335 125.429C24.2603 126.364 25.6925 126.765 25.8667 125.824Z" fill="#3F3D56"/>
<path d="M46.5718 129.068C50.129 129.068 53.0126 126.186 53.0126 122.631C53.0126 119.076 50.129 116.194 46.5718 116.194C43.0147 116.194 40.131 119.076 40.131 122.631C40.131 126.186 43.0147 129.068 46.5718 129.068Z" fill="#6C63FF"/>
<path d="M92.8959 115.451C96.453 115.451 99.3367 112.569 99.3367 109.014C99.3367 105.458 96.453 102.576 92.8959 102.576C89.3387 102.576 86.4551 105.458 86.4551 109.014C86.4551 112.569 89.3387 115.451 92.8959 115.451Z" fill="#6C63FF"/>
<path d="M156.313 110.994C159.87 110.994 162.754 108.112 162.754 104.557C162.754 101.002 159.87 98.1198 156.313 98.1198C152.756 98.1198 149.872 101.002 149.872 104.557C149.872 108.112 152.756 110.994 156.313 110.994Z" fill="#6C63FF"/>
<path d="M101.064 219.354H86.9365C86.1595 219.354 85.4087 219.073 84.8221 218.564C84.2356 218.054 83.8526 217.351 83.7435 216.582C82.8711 210.166 82.8711 203.662 83.7435 197.247C83.8509 196.488 84.2247 195.793 84.7981 195.285C85.3714 194.777 86.1069 194.49 86.8729 194.474C91.4732 192.005 96.2675 192.004 101.125 194.474C101.588 194.482 102.044 194.59 102.461 194.792C102.879 194.994 103.247 195.285 103.54 195.644C103.847 196.018 104.067 196.457 104.184 196.927C104.3 197.397 104.31 197.888 104.213 198.362C103.079 204.007 103.079 209.821 104.213 215.466C104.31 215.94 104.3 216.43 104.184 216.901C104.067 217.371 103.847 217.809 103.54 218.184C103.24 218.551 102.862 218.846 102.434 219.048C102.006 219.251 101.538 219.355 101.064 219.354Z" fill="#6C63FF"/>
<path d="M165.967 26.3737H151.84C151.063 26.3731 150.312 26.0924 149.725 25.583C149.139 25.0736 148.756 24.3698 148.647 23.6009C147.774 17.1853 147.774 10.6813 148.647 4.26572C148.755 3.50603 149.13 2.80963 149.705 2.30154C150.28 1.79344 151.018 1.50693 151.786 1.49344C156.231 -0.497894 161.017 -0.497651 166.016 1.4932C166.481 1.49937 166.94 1.60731 167.359 1.80943C167.779 2.01155 168.149 2.30295 168.443 2.66319C168.751 3.03794 168.97 3.47639 169.087 3.94668C169.203 4.41698 169.214 4.90731 169.117 5.38205C167.982 11.0265 167.982 16.8402 169.117 22.4846C169.214 22.9593 169.203 23.4497 169.087 23.92C168.97 24.3903 168.751 24.8287 168.443 25.2035C168.143 25.5701 167.766 25.8653 167.337 26.0677C166.909 26.2702 166.441 26.3747 165.967 26.3737Z" fill="#6C63FF"/>
<path d="M53.3641 39.2329H39.2367C38.7629 39.2339 38.2949 39.1294 37.8666 38.927C37.4383 38.7246 37.0605 38.4293 36.7607 38.0627C36.4534 37.688 36.2335 37.2495 36.117 36.7792C36.0005 36.3089 35.9903 35.8186 36.0872 35.3439C37.222 29.6994 37.222 23.8857 36.0872 18.2413C35.9903 17.7665 36.0005 17.2762 36.117 16.8058C36.2335 16.3355 36.4534 15.897 36.7607 15.5222C37.0542 15.1633 37.4226 14.8727 37.8401 14.6707C38.2576 14.4688 38.7141 14.3602 39.1779 14.3527C43.4729 12.2504 48.2619 12.2504 53.4137 14.3527C54.1821 14.365 54.9209 14.651 55.4971 15.1592C56.0733 15.6674 56.4491 16.3645 56.5569 17.125C57.4293 23.5405 57.4293 30.0444 56.5569 36.4599C56.448 37.2289 56.065 37.9327 55.4785 38.4422C54.8919 38.9516 54.1412 39.2324 53.3641 39.2329Z" fill="#CCCCCC"/>
<path d="M164.488 8.86494H152.597C152.4 8.86494 152.211 8.78668 152.071 8.64738C151.932 8.50809 151.854 8.31917 151.854 8.12218C151.854 7.92518 151.932 7.73626 152.071 7.59696C152.211 7.45767 152.4 7.37942 152.597 7.37942H164.488C164.685 7.37942 164.874 7.45767 165.013 7.59696C165.153 7.73626 165.231 7.92518 165.231 8.12218C165.231 8.31917 165.153 8.50809 165.013 8.64738C164.874 8.78668 164.685 8.86494 164.488 8.86494Z" fill="white"/>
<path d="M164.488 14.807H152.597C152.4 14.807 152.211 14.7287 152.071 14.5895C151.932 14.4502 151.854 14.2612 151.854 14.0642C151.854 13.8673 151.932 13.6783 152.071 13.539C152.211 13.3997 152.4 13.3215 152.597 13.3215H164.488C164.685 13.3215 164.874 13.3997 165.013 13.539C165.153 13.6783 165.231 13.8673 165.231 14.0642C165.231 14.2612 165.153 14.4502 165.013 14.5895C164.874 14.7287 164.685 14.807 164.488 14.807Z" fill="white"/>
<path d="M164.488 20.7491H152.597C152.4 20.7491 152.211 20.6708 152.071 20.5315C151.932 20.3922 151.854 20.2033 151.854 20.0063C151.854 19.8093 151.932 19.6204 152.071 19.4811C152.211 19.3418 152.4 19.2636 152.597 19.2636H164.488C164.685 19.2636 164.874 19.3418 165.013 19.4811C165.153 19.6204 165.231 19.8093 165.231 20.0063C165.231 20.2033 165.153 20.3922 165.013 20.5315C164.874 20.6708 164.685 20.7491 164.488 20.7491Z" fill="white"/>
<path d="M53.5802 20.7491H41.6895C41.4924 20.7491 41.3034 20.6708 41.164 20.5315C41.0247 20.3922 40.9464 20.2033 40.9464 20.0063C40.9464 19.8093 41.0247 19.6204 41.164 19.4811C41.3034 19.3418 41.4924 19.2636 41.6895 19.2636H53.5802C53.7773 19.2636 53.9663 19.3418 54.1057 19.4811C54.2451 19.6204 54.3234 19.8093 54.3234 20.0063C54.3234 20.2033 54.2451 20.3922 54.1057 20.5315C53.9663 20.6708 53.7773 20.7491 53.5802 20.7491Z" fill="white"/>
<path d="M53.5802 26.6911H41.6895C41.4924 26.6911 41.3034 26.6129 41.164 26.4736C41.0247 26.3343 40.9464 26.1454 40.9464 25.9484C40.9464 25.7514 41.0247 25.5625 41.164 25.4232C41.3034 25.2839 41.4924 25.2056 41.6895 25.2056H53.5802C53.7773 25.2056 53.9663 25.2839 54.1057 25.4232C54.2451 25.5625 54.3234 25.7514 54.3234 25.9484C54.3234 26.1454 54.2451 26.3343 54.1057 26.4736C53.9663 26.6129 53.7773 26.6911 53.5802 26.6911Z" fill="white"/>
<path d="M53.5802 32.6332H41.6895C41.4924 32.6332 41.3034 32.555 41.164 32.4157C41.0247 32.2764 40.9464 32.0875 40.9464 31.8905C40.9464 31.6935 41.0247 31.5045 41.164 31.3652C41.3034 31.226 41.4924 31.1477 41.6895 31.1477H53.5802C53.7773 31.1477 53.9663 31.226 54.1057 31.3652C54.2451 31.5045 54.3234 31.6935 54.3234 31.8905C54.3234 32.0875 54.2451 32.2764 54.1057 32.4157C53.9663 32.555 53.7773 32.6332 53.5802 32.6332Z" fill="white"/>
<path d="M100.152 200.497H88.2613C88.0642 200.497 87.8752 200.418 87.7358 200.279C87.5965 200.14 87.5182 199.951 87.5182 199.754C87.5182 199.557 87.5965 199.368 87.7358 199.229C87.8752 199.089 88.0642 199.011 88.2613 199.011H100.152C100.349 199.011 100.538 199.089 100.678 199.229C100.817 199.368 100.895 199.557 100.895 199.754C100.895 199.951 100.817 200.14 100.678 200.279C100.538 200.418 100.349 200.497 100.152 200.497Z" fill="white"/>
<path d="M100.152 206.439H88.2613C88.0642 206.439 87.8752 206.361 87.7358 206.221C87.5965 206.082 87.5182 205.893 87.5182 205.696C87.5182 205.499 87.5965 205.31 87.7358 205.171C87.8752 205.032 88.0642 204.953 88.2613 204.953H100.152C100.349 204.953 100.538 205.032 100.678 205.171C100.817 205.31 100.895 205.499 100.895 205.696C100.895 205.893 100.817 206.082 100.678 206.221C100.538 206.361 100.349 206.439 100.152 206.439Z" fill="white"/>
<path d="M100.152 212.381H88.2613C88.0642 212.381 87.8752 212.303 87.7358 212.163C87.5965 212.024 87.5182 211.835 87.5182 211.638C87.5182 211.441 87.5965 211.252 87.7358 211.113C87.8752 210.974 88.0642 210.895 88.2613 210.895H100.152C100.349 210.895 100.538 210.974 100.678 211.113C100.817 211.252 100.895 211.441 100.895 211.638C100.895 211.835 100.817 212.024 100.678 212.163C100.538 212.303 100.349 212.381 100.152 212.381Z" fill="white"/>
<path d="M333.94 178.07L300.854 170.59L288.597 199.011L285.128 256.946L294.165 303.988H312.273L303.955 256.946L305.937 221.294L315.222 264.109L339.824 299.631L351.175 289.833L331.7 256.451C331.7 256.451 339.854 196.524 331.205 186.137L333.94 178.07Z" fill="#2F2E41"/>
<path d="M314.197 121.633L316.848 120.638L320.191 115.236L332.097 116.208L334.991 122L341.963 127.322L338.914 143.37L334.177 162.864L302.469 158.902L302.503 144.228C302.503 144.228 296.773 132.634 306.028 128.29L314.197 121.633Z" fill="#E6E6E6"/>
<path d="M265.322 172.535C265.938 172.782 266.6 172.891 267.262 172.854C267.924 172.818 268.571 172.637 269.155 172.324C269.74 172.01 270.249 171.573 270.646 171.042C271.043 170.511 271.319 169.9 271.454 169.251L306.809 147.869L300.347 140.418L267.626 163.778C266.52 163.623 265.396 163.879 264.466 164.498C263.537 165.116 262.866 166.054 262.582 167.134C262.298 168.213 262.42 169.359 262.925 170.355C263.43 171.35 264.283 172.126 265.322 172.535Z" fill="#A0616A"/>
<path d="M318.589 137.73C318.589 137.73 320.279 139.43 316.04 142.223C312.646 144.46 297.507 155.513 292.14 157.261C292.207 158.049 292.01 158.837 291.58 159.5C291.15 160.164 290.511 160.666 289.764 160.926L284.905 150.254C285.957 147.815 287.639 148.38 288.525 148.933L294.393 144.522L308.804 130.14L317.39 136.481L318.589 137.73Z" fill="#E6E6E6"/>
<path d="M264.406 174.265H250.279C249.805 174.266 249.337 174.161 248.909 173.959C248.48 173.757 248.103 173.461 247.803 173.095C247.496 172.72 247.276 172.282 247.159 171.811C247.043 171.341 247.033 170.851 247.129 170.376C248.264 164.731 248.264 158.918 247.129 153.273C247.033 152.799 247.043 152.308 247.159 151.838C247.276 151.368 247.496 150.929 247.803 150.554C248.096 150.195 248.465 149.905 248.882 149.703C249.3 149.501 249.756 149.392 250.22 149.385C254.515 147.282 259.304 147.282 264.456 149.385C265.224 149.397 265.963 149.683 266.539 150.191C267.116 150.699 267.491 151.397 267.599 152.157C268.471 158.573 268.471 165.077 267.599 171.492C267.49 172.261 267.107 172.965 266.521 173.474C265.934 173.984 265.183 174.264 264.406 174.265Z" fill="#6C63FF"/>
<path d="M264.622 155.781H252.732C252.535 155.781 252.346 155.703 252.206 155.564C252.067 155.424 251.989 155.235 251.989 155.038C251.989 154.841 252.067 154.652 252.206 154.513C252.346 154.374 252.535 154.296 252.732 154.296H264.622C264.82 154.296 265.009 154.374 265.148 154.513C265.287 154.652 265.366 154.841 265.366 155.038C265.366 155.235 265.287 155.424 265.148 155.564C265.009 155.703 264.82 155.781 264.622 155.781Z" fill="white"/>
<path d="M264.622 161.723H252.732C252.535 161.723 252.346 161.645 252.206 161.506C252.067 161.366 251.989 161.177 251.989 160.98C251.989 160.783 252.067 160.595 252.206 160.455C252.346 160.316 252.535 160.238 252.732 160.238H264.622C264.82 160.238 265.009 160.316 265.148 160.455C265.287 160.595 265.366 160.783 265.366 160.98C265.366 161.177 265.287 161.366 265.148 161.506C265.009 161.645 264.82 161.723 264.622 161.723Z" fill="white"/>
<path d="M264.622 167.665H252.732C252.535 167.665 252.346 167.587 252.206 167.448C252.067 167.308 251.989 167.12 251.989 166.923C251.989 166.726 252.067 166.537 252.206 166.397C252.346 166.258 252.535 166.18 252.732 166.18H264.622C264.82 166.18 265.009 166.258 265.148 166.397C265.287 166.537 265.366 166.726 265.366 166.923C265.366 167.12 265.287 167.308 265.148 167.448C265.009 167.587 264.82 167.665 264.622 167.665Z" fill="white"/>
<path d="M332.778 216.85H318.65C318.176 216.851 317.708 216.746 317.28 216.544C316.852 216.341 316.474 216.046 316.174 215.68C315.867 215.305 315.647 214.866 315.531 214.396C315.414 213.926 315.404 213.436 315.501 212.961C316.636 207.316 316.636 201.503 315.501 195.858C315.404 195.383 315.414 194.893 315.531 194.423C315.647 193.952 315.867 193.514 316.174 193.139C316.468 192.78 316.836 192.49 317.254 192.288C317.671 192.086 318.128 191.977 318.591 191.97C322.886 189.867 327.675 189.867 332.827 191.97C333.596 191.982 334.334 192.268 334.911 192.776C335.487 193.284 335.863 193.981 335.97 194.742C336.843 201.157 336.843 207.661 335.97 214.077C335.861 214.846 335.479 215.55 334.892 216.059C334.305 216.569 333.555 216.849 332.778 216.85Z" fill="#CCCCCC"/>
<path d="M332.994 198.366H321.103C320.906 198.366 320.717 198.288 320.578 198.148C320.438 198.009 320.36 197.82 320.36 197.623C320.36 197.426 320.438 197.237 320.578 197.098C320.717 196.959 320.906 196.88 321.103 196.88H332.994C333.191 196.88 333.38 196.959 333.519 197.098C333.659 197.237 333.737 197.426 333.737 197.623C333.737 197.82 333.659 198.009 333.519 198.148C333.38 198.288 333.191 198.366 332.994 198.366Z" fill="white"/>
<path d="M332.994 204.308H321.103C320.906 204.308 320.717 204.23 320.578 204.091C320.438 203.951 320.36 203.762 320.36 203.565C320.36 203.368 320.438 203.179 320.578 203.04C320.717 202.901 320.906 202.823 321.103 202.823H332.994C333.191 202.823 333.38 202.901 333.519 203.04C333.659 203.179 333.737 203.368 333.737 203.565C333.737 203.762 333.659 203.951 333.519 204.091C333.38 204.23 333.191 204.308 332.994 204.308Z" fill="white"/>
<path d="M332.994 210.25H321.103C320.906 210.25 320.717 210.172 320.578 210.033C320.438 209.893 320.36 209.704 320.36 209.507C320.36 209.31 320.438 209.121 320.578 208.982C320.717 208.843 320.906 208.765 321.103 208.765H332.994C333.191 208.765 333.38 208.843 333.519 208.982C333.659 209.121 333.737 209.31 333.737 209.507C333.737 209.704 333.659 209.893 333.519 210.033C333.38 210.172 333.191 210.25 332.994 210.25Z" fill="white"/>
<path d="M326.506 195.588C327.124 195.348 327.682 194.975 328.14 194.496C328.599 194.017 328.947 193.443 329.159 192.815C329.372 192.187 329.444 191.52 329.371 190.861C329.298 190.203 329.081 189.568 328.736 189.002L339.921 149.243L330.107 148.218L322.199 187.622C321.286 188.264 320.64 189.219 320.385 190.306C320.129 191.392 320.281 192.535 320.812 193.517C321.343 194.499 322.216 195.252 323.265 195.634C324.315 196.015 325.468 195.999 326.506 195.588Z" fill="#A0616A"/>
<path d="M341.575 127.417C341.575 127.417 343.97 127.503 342.786 132.439C341.839 136.39 338.358 161.176 335.636 166.119C336.224 166.648 336.619 167.357 336.759 168.136C336.898 168.914 336.775 169.716 336.408 170.417L325.563 165.946C324.663 163.447 325.36 161.178 326.384 160.977L327.652 153.748L329.519 129.498L339.845 127.324L341.575 127.417Z" fill="#E6E6E6"/>
<path d="M332.723 82.3683C334.365 84.7894 335.426 87.5565 335.822 90.4541C336.219 93.3518 335.942 96.3019 335.012 99.0749" fill="#FD6584"/>
<path d="M390.571 324.411C390.571 324.488 390.556 324.565 390.526 324.637C390.497 324.708 390.453 324.773 390.398 324.828C390.344 324.883 390.279 324.926 390.207 324.956C390.135 324.985 390.058 325 389.981 325H251.113C251.035 325 250.959 324.985 250.887 324.955C250.816 324.926 250.751 324.882 250.696 324.827C250.641 324.773 250.598 324.708 250.568 324.636C250.538 324.565 250.523 324.488 250.523 324.411C250.523 324.333 250.538 324.257 250.568 324.185C250.598 324.114 250.641 324.049 250.696 323.994C250.751 323.939 250.816 323.896 250.887 323.866C250.959 323.837 251.035 323.822 251.113 323.822H389.981C390.058 323.821 390.135 323.836 390.207 323.866C390.278 323.895 390.344 323.939 390.398 323.994C390.453 324.048 390.497 324.113 390.526 324.185C390.556 324.257 390.571 324.333 390.571 324.411Z" fill="#CCCCCC"/>
</g>
<defs>
<clipPath id="clip0_11_95">
<rect width="403" height="325" fill="white"/>
</clipPath>
</defs>
</svg>
